<?xml version="1.0" encoding="UTF-8" standalone="no"?>
<svg width="483px" height="73px" viewBox="0 0 483 73" version="1.1" xmlns="http://www.w3.org/2000/svg" xmlns:xlink="http://www.w3.org/1999/xlink">
    <!-- Generator: Sketch 48.2 (47327) - http://www.bohemiancoding.com/sketch -->
    <title>Page 1</title>
    <desc>Created with Sketch.</desc>
    <defs>
        <polygon id="path-1" points="0.6691 0.7997 26.919 0.7997 26.919 34.9247 0.6691 34.9247"></polygon>
        <polygon id="path-3" points="0.0001 0.905 19.7691 0.905 19.7691 21.0739 0.0001 21.0739"></polygon>
    </defs>
    <g id="Page-1" stroke="none" stroke-width="1" fill="none" fill-rule="evenodd">
        <g transform="translate(0.000000, -1.000000)">
            <path d="M118.8692,42.067 C118.8692,41.473 118.7832,40.938 118.6112,40.462 C118.4392,39.985 118.1072,39.544 117.6152,39.137 C117.1232,38.731 116.4432,38.333 115.5762,37.942 C114.7092,37.551 113.5882,37.137 112.2132,36.7 C110.6502,36.2 109.1782,35.637 107.7952,35.012 C106.4122,34.387 105.2012,33.649 104.1622,32.797 C103.1232,31.946 102.3032,30.965 101.7012,29.856 C101.0992,28.747 100.7992,27.45 100.7992,25.965 C100.7992,24.544 101.1072,23.243 101.7242,22.063 C102.3422,20.883 103.2092,19.88 104.3262,19.051 C105.4432,18.223 106.7712,17.579 108.3102,17.118 C109.8492,16.657 111.5412,16.426 113.3852,16.426 C115.2752,16.426 116.9942,16.688 118.5412,17.212 C120.0882,17.735 121.4082,18.465 122.5022,19.403 C123.5962,20.34 124.4392,21.454 125.0332,22.743 C125.6272,24.032 125.9242,25.442 125.9242,26.973 L118.8922,26.973 C118.8922,26.254 118.7792,25.59 118.5532,24.981 C118.3262,24.372 117.9782,23.848 117.5102,23.411 C117.0412,22.973 116.4552,22.633 115.7522,22.391 C115.0492,22.149 114.2212,22.028 113.2672,22.028 C112.3462,22.028 111.5452,22.13 110.8652,22.333 C110.1852,22.536 109.6232,22.817 109.1782,23.176 C108.7322,23.536 108.3962,23.958 108.1702,24.442 C107.9432,24.926 107.8302,25.442 107.8302,25.989 C107.8302,27.114 108.4042,28.055 109.5532,28.813 C110.7012,29.571 112.3852,30.278 114.6032,30.934 C116.4632,31.512 118.0992,32.153 119.5142,32.856 C120.9282,33.559 122.1072,34.356 123.0532,35.247 C123.9982,36.137 124.7132,37.137 125.1972,38.247 C125.6812,39.356 125.9242,40.614 125.9242,42.02 C125.9242,43.52 125.6312,44.856 125.0452,46.028 C124.4592,47.2 123.6272,48.188 122.5492,48.993 C121.4712,49.797 120.1702,50.415 118.6462,50.844 C117.1232,51.274 115.4242,51.489 113.5492,51.489 C112.4242,51.489 111.2992,51.391 110.1742,51.196 C109.0492,51.001 107.9742,50.7 106.9512,50.294 C105.9282,49.887 104.9782,49.379 104.1032,48.77 C103.2282,48.161 102.4672,47.442 101.8182,46.614 C101.1702,45.786 100.6622,44.844 100.2952,43.79 C99.9282,42.735 99.7442,41.567 99.7442,40.286 L106.7992,40.286 C106.7992,41.317 106.9632,42.192 107.2912,42.911 C107.6192,43.629 108.0762,44.212 108.6622,44.657 C109.2482,45.102 109.9552,45.426 110.7832,45.63 C111.6112,45.833 112.5332,45.934 113.5492,45.934 C114.4552,45.934 115.2442,45.837 115.9162,45.641 C116.5882,45.446 117.1422,45.176 117.5802,44.833 C118.0172,44.489 118.3422,44.079 118.5532,43.602 C118.7642,43.126 118.8692,42.614 118.8692,42.067" id="Fill-1" fill="#FEFEFE"></path>
            <path d="M137.1368,33.3014 L143.4178,33.3014 C144.4178,33.3014 145.2818,33.1764 146.0078,32.9264 C146.7348,32.6764 147.3278,32.3284 147.7888,31.8834 C148.2498,31.4384 148.5898,30.9034 148.8088,30.2784 C149.0278,29.6534 149.1368,28.9734 149.1368,28.2394 C149.1368,27.5044 149.0278,26.7974 148.8088,26.1174 C148.5898,25.4384 148.2498,24.8364 147.7888,24.3134 C147.3278,23.7894 146.7348,23.3714 146.0078,23.0594 C145.2818,22.7464 144.4178,22.5904 143.4178,22.5904 L137.1368,22.5904 L137.1368,33.3014 Z M137.1368,38.9964 L137.1368,51.0204 L130.1058,51.0204 L130.1058,16.8954 L143.4178,16.8954 C145.4338,16.8954 147.2348,17.1764 148.8208,17.7384 C150.4068,18.3014 151.7498,19.0864 152.8518,20.0944 C153.9528,21.1024 154.7928,22.2974 155.3708,23.6804 C155.9488,25.0634 156.2388,26.5674 156.2388,28.1924 C156.2388,29.8484 155.9488,31.3404 155.3708,32.6684 C154.7928,33.9964 153.9528,35.1294 152.8518,36.0674 C151.7498,37.0044 150.4068,37.7274 148.8208,38.2354 C147.2348,38.7424 145.4338,38.9964 143.4178,38.9964 L137.1368,38.9964 Z" id="Fill-3" fill="#FEFEFE"></path>
            <path d="M165.1505,38.2936 L173.6815,38.2936 L169.3925,25.5206 L165.1505,38.2936 Z M175.5805,43.9886 L163.2525,43.9886 L160.9085,51.0206 L153.4315,51.0206 L166.1345,16.8956 L172.6505,16.8956 L185.4235,51.0206 L177.9475,51.0206 L175.5805,43.9886 Z" id="Fill-5" fill="#FEFEFE"></path>
            <path d="M195.0675,32.8326 L200.7395,32.8326 C201.6615,32.8326 202.4695,32.7116 203.1655,32.4696 C203.8605,32.2276 204.4385,31.8836 204.8995,31.4376 C205.3605,30.9926 205.7085,30.4616 205.9425,29.8446 C206.1765,29.2276 206.2945,28.5356 206.2945,27.7706 C206.2945,26.1606 205.8375,24.8956 204.9225,23.9736 C204.0085,23.0516 202.6065,22.5906 200.7155,22.5906 L195.0675,22.5906 L195.0675,32.8326 Z M200.6695,38.5276 L195.0675,38.5276 L195.0675,51.0196 L188.0365,51.0196 L188.0365,16.8946 L200.7155,16.8946 C202.6845,16.8946 204.4505,17.1176 206.0125,17.5626 C207.5755,18.0086 208.8955,18.6646 209.9735,19.5316 C211.0515,20.3986 211.8795,21.4736 212.4585,22.7546 C213.0365,24.0356 213.3255,25.5206 213.3255,27.2076 C213.3255,28.4576 213.1845,29.5786 212.9035,30.5706 C212.6225,31.5626 212.2155,32.4456 211.6845,33.2196 C211.1535,33.9926 210.5125,34.6686 209.7625,35.2466 C209.0125,35.8246 208.1695,36.3246 207.2315,36.7466 L214.6145,50.6916 L214.6145,51.0196 L207.0675,51.0196 L200.6695,38.5276 Z" id="Fill-7" fill="#FEFEFE"></path>
            <polygon id="Fill-9" fill="#FEFEFE" points="228.8282 37.3326 225.1722 41.2706 225.1722 51.0206 218.1402 51.0206 218.1402 16.8956 225.1722 16.8956 225.1722 32.3636 228.2662 28.1216 236.9612 16.8956 245.6092 16.8956 233.4922 32.0596 245.9612 51.0206 237.5942 51.0206"></polygon>
            <polygon id="Fill-11" fill="#FEFEFE" points="255.0646 45.3717 269.9946 45.3717 269.9946 51.0197 248.0336 51.0197 248.0336 16.8947 255.0646 16.8947"></polygon>
            <polygon id="Fill-13" fill="#FEFEFE" points="293.9806 36.2311 280.4806 36.2311 280.4806 45.3721 296.3246 45.3721 296.3246 51.0201 273.4496 51.0201 273.4496 16.8951 296.2776 16.8951 296.2776 22.5901 280.4806 22.5901 280.4806 30.7231 293.9806 30.7231"></polygon>
            <polygon id="Fill-15" fill="#FEFEFE" points="318.5851 41.8092 319.6401 47.1062 320.9291 42.0432 328.3351 16.8952 330.9371 16.8952 338.2491 42.0432 339.5151 47.1532 340.6401 41.8092 346.8041 16.8952 349.7571 16.8952 341.0151 51.0202 338.2491 51.0202 330.5151 24.3252 329.6481 20.9502 328.8041 24.3252 320.8821 51.0202 318.1161 51.0202 309.3971 16.8952 312.3511 16.8952"></polygon>
            <path d="M357.548,38.9967 L371.236,38.9967 L364.392,20.4107 L357.548,38.9967 Z M372.15,41.4577 L356.657,41.4577 L353.142,51.0197 L350.118,51.0197 L363.032,16.8947 L365.775,16.8947 L378.689,51.0197 L375.689,51.0197 L372.15,41.4577 Z" id="Fill-17" fill="#FEFEFE"></path>
            <polygon id="Fill-19" fill="#FEFEFE" points="386.0343 48.5826 402.8863 48.5826 402.8863 51.0206 383.1283 51.0206 383.1283 16.8956 386.0343 16.8956"></polygon>
            <polygon id="Fill-21" fill="#FEFEFE" points="410.7472 48.5826 427.5992 48.5826 427.5992 51.0206 407.8412 51.0206 407.8412 16.8956 410.7472 16.8956"></polygon>
            <polygon id="Fill-23" fill="#FEFEFE" points="451.3976 34.6608 435.4366 34.6608 435.4366 48.5828 453.7886 48.5828 453.7886 51.0198 432.5536 51.0198 432.5536 16.8948 453.6706 16.8948 453.6706 19.3558 435.4366 19.3558 435.4366 32.2228 451.3976 32.2228"></polygon>
            <g id="Group-27" transform="translate(456.000000, 16.095400)">
                <mask id="mask-2" fill="white">
                    <use xlink:href="#path-1"></use>
                </mask>
                <g id="Clip-26"></g>
                <polygon id="Fill-25" fill="#FEFEFE" mask="url(#mask-2)" points="26.9191 3.2607 15.2241 3.2607 15.2241 34.9247 12.3411 34.9247 12.3411 3.2607 0.6691 3.2607 0.6691 0.7997 26.9191 0.7997"></polygon>
            </g>
            <path d="M71.9962,35.9137 C66.2322,35.9827 61.5862,40.7167 61.6272,46.4907 C61.6362,47.7127 61.8472,48.8937 62.2542,50.0167 C66.9882,46.5137 70.4142,41.5467 71.9992,35.9137 L71.9962,35.9137 Z" id="Fill-28" fill="#FEFEFE"></path>
            <path d="M74.2218,34.3248 L73.9958,35.2758 C73.9228,35.5818 73.7888,36.0948 73.8018,36.0478 C78.8458,36.8498 82.5878,41.1508 82.6258,46.3428 C82.6458,49.1468 81.5718,51.7928 79.6008,53.7918 C77.6308,55.7888 75.0008,56.9008 72.1968,56.9208 C68.4188,56.9058 64.9008,54.9028 63.0178,51.6558 C63.0338,51.6438 63.0488,51.6338 63.0648,51.6218 C62.8378,51.7878 62.5958,51.9578 62.3548,52.1178 L61.5488,52.6488 C63.7488,56.3568 67.7888,58.6948 72.1228,58.6948 L72.2078,58.6948 C75.4878,58.6718 78.5618,57.3728 80.8648,55.0368 C83.1668,52.7008 84.4228,49.6088 84.3998,46.3298 C84.3568,40.3098 80.0478,35.3198 74.2218,34.3248" id="Fill-30" fill="#FEFEFE"></path>
            <polygon id="Fill-32" fill="#FEFEFE" points="73.045 68.9391 70.697 68.9601 70.678 66.6121 68.903 66.6271 68.923 68.9741 66.575 68.9941 66.591 70.7681 68.939 70.7491 68.958 73.0951 70.732 73.0801 70.712 70.7331 73.06 70.7131"></polygon>
            <path d="M28.2569,33.4733 L28.2239,33.4733 C27.0019,33.4733 25.8509,33.0013 24.9789,32.1423 C24.0999,31.2753 23.6109,30.1183 23.6019,28.8833 C23.5949,27.9273 23.8809,27.0363 24.3739,26.2943 L20.6369,22.6093 C20.1569,24.6503 19.9139,26.7603 19.9299,28.9103 C20.0319,43.4723 31.9169,55.2483 46.4619,55.2483 C46.5259,55.2483 46.5889,55.2483 46.6519,55.2473 C48.7889,55.2323 50.8879,54.9493 52.9199,54.4393 L30.8349,32.6643 C30.0809,33.1823 29.1929,33.4663 28.2569,33.4733" id="Fill-34" fill="#FEFEFE"></path>
            <path d="M28.1925,24.2272 L28.2245,24.2272 C30.7585,24.2272 32.8305,26.2792 32.8475,28.8172 C32.8545,29.7492 32.5855,30.6412 32.0805,31.4012 L54.8685,53.8692 C56.9215,53.1812 58.8905,52.2522 60.7275,51.0682 L60.7515,51.0512 C60.1665,49.6122 59.8645,48.0862 59.8525,46.5042 C59.8045,39.7342 65.2695,34.1872 72.0355,34.1382 C72.1675,34.1382 72.2985,34.1382 72.4295,34.1422 C72.5635,33.4892 72.6755,32.8242 72.7655,32.1572 C72.9175,30.9992 72.9895,29.7812 72.9795,28.5352 L72.9795,28.5342 C72.9295,21.4482 70.1255,14.8062 65.0815,9.8312 C60.0835,4.9032 53.4805,2.1962 46.4685,2.1962 C46.4045,2.1962 46.3405,2.1962 46.2755,2.1972 C39.1875,2.2472 32.5455,5.0522 27.5685,10.0972 C24.5895,13.1172 22.4295,16.7252 21.1795,20.6542 L25.6215,25.0332 C26.3545,24.5312 27.2395,24.2342 28.1925,24.2272" id="Fill-36" fill="#FEFEFE"></path>
            <path d="M28.2042,26.0016 C26.6352,26.0136 25.3652,27.3006 25.3762,28.8706 C25.3812,29.6316 25.6832,30.3456 26.2252,30.8786 C26.7622,31.4076 27.4712,31.6986 28.2252,31.6986 L28.2452,31.6986 C29.0062,31.6936 29.7202,31.3926 30.2532,30.8506 C30.7882,30.3086 31.0792,29.5916 31.0732,28.8296 C31.0622,27.2666 29.7862,26.0016 28.2252,26.0016 L28.2042,26.0016 Z" id="Fill-38" fill="#FEFEFE"></path>
            <g id="Group-42" transform="translate(0.000000, 0.095400)">
                <mask id="mask-4" fill="white">
                    <use xlink:href="#path-3"></use>
                </mask>
                <g id="Clip-41"></g>
                <path d="M0.0001,2.1679 L19.1761,21.0739 C19.3531,20.4319 19.5471,19.7939 19.7691,19.1669 L1.2461,0.9039 L0.0001,2.1679 Z" id="Fill-40" fill="#FEFEFE" mask="url(#mask-4)"></path>
            </g>
            <path d="M56.2745,55.2545 C55.6515,55.4855 55.0215,55.6955 54.3835,55.8815 L65.9375,67.2735 L67.1835,66.0105 L56.2745,55.2545 Z" id="Fill-43" fill="#FEFEFE"></path>
        </g>
    </g>
</svg>