<?xml version="1.0" encoding="UTF-8" standalone="no"?>
<svg width="305px" height="47px" viewBox="0 0 305 47" version="1.1" xmlns="http://www.w3.org/2000/svg" xmlns:xlink="http://www.w3.org/1999/xlink">
    <!-- Generator: Sketch 48.2 (47327) - http://www.bohemiancoding.com/sketch -->
    <title>Page 1 Copy 4</title>
    <desc>Created with Sketch.</desc>
    <defs>
        <polygon id="path-1" points="0.422516563 0.507917568 16.9985404 0.507917568 16.9985404 22.1819041 0.422516563 22.1819041"></polygon>
        <polygon id="path-3" points="6.31469979e-05 0.574797297 12.4835932 0.574797297 12.4835932 13.3847743 6.31469979e-05 13.3847743"></polygon>
    </defs>
    <g id="创建新钱包" stroke="none" stroke-width="1" fill="none" fill-rule="evenodd" transform="translate(-360.000000, -186.000000)">
        <g id="Group-5" transform="translate(275.000000, 129.000000)">
            <g id="Page-1-Copy-4" transform="translate(85.000000, 57.000000)">
                <path d="M75.0623313,26.0830946 C75.0623313,25.7058243 75.0080248,25.366027 74.899412,25.0637027 C74.7907992,24.7607432 74.5811511,24.4806486 74.2704679,24.2221486 C73.9597847,23.9642838 73.5303851,23.7115 72.9829006,23.4631622 C72.4354161,23.2148243 71.7275383,22.9518784 70.8592671,22.6743243 C69.8722795,22.3567568 68.9427557,21.9991757 68.0694327,21.6022162 C67.1961097,21.2052568 66.4313996,20.736527 65.7753023,20.1953919 C65.119205,19.6548919 64.6013996,19.0318243 64.2212547,18.3274595 C63.8411097,17.6230946 63.6516687,16.7993243 63.6516687,15.8561486 C63.6516687,14.9536216 63.8461615,14.1273108 64.2357785,13.3778514 C64.6260269,12.6283919 65.1735114,11.9913514 65.8788634,11.4648243 C66.5842153,10.9389324 67.4228075,10.5299054 68.3946398,10.2371081 C69.366472,9.94431081 70.4349193,9.79759459 71.5993499,9.79759459 C72.7928282,9.79759459 73.8783251,9.964 74.8552091,10.2968108 C75.8320932,10.6289865 76.6656335,11.0926351 77.3564617,11.6883919 C78.0472899,12.2835135 78.579619,12.9910541 78.9547122,13.8097432 C79.3298054,14.6284324 79.517352,15.523973 79.517352,16.4963649 L75.0768551,16.4963649 C75.0768551,16.0397027 75.005499,15.617973 74.8627867,15.2311757 C74.7194431,14.8443784 74.4996915,14.5115676 74.2041636,14.2340135 C73.9080041,13.9558243 73.5379627,13.7398784 73.0940393,13.5861757 C72.6501159,13.432473 72.1272588,13.3556216 71.5248364,13.3556216 C70.9432526,13.3556216 70.4374451,13.4204054 70.0080455,13.5493378 C69.578646,13.6782703 69.2237598,13.8567432 68.9427557,14.0847568 C68.6611201,14.3134054 68.4489462,14.5814324 68.306234,14.8888378 C68.1628903,15.1962432 68.0915342,15.523973 68.0915342,15.8713919 C68.0915342,16.5859189 68.4539979,17.1835811 69.1795569,17.6650135 C69.9044845,18.1464459 70.9678799,18.5954865 72.3684803,19.0121351 C73.5430145,19.3792432 74.5760994,19.7863649 75.4696294,20.2328649 C76.362528,20.6793649 77.1070311,21.1855676 77.7044017,21.751473 C78.3011408,22.3167432 78.7526418,22.9518784 79.0582733,23.6568784 C79.3639048,24.3612432 79.517352,25.1602432 79.517352,26.0532432 C79.517352,27.0059459 79.3323313,27.8544865 78.9622899,28.5988649 C78.5922484,29.3432432 78.0668654,29.9707568 77.3861408,30.4820405 C76.7054161,30.9926892 75.8838737,31.3852027 74.9215135,31.6576757 C73.9597847,31.9307838 72.8869172,32.0673378 71.702911,32.0673378 C70.9925072,32.0673378 70.2821035,32.0050946 69.5716998,31.8812432 C68.8612961,31.7573919 68.1824658,31.5662162 67.536472,31.3083514 C66.8904783,31.0498514 66.2905818,30.7272027 65.7380455,30.3404054 C65.1855093,29.9536081 64.7049607,29.4969459 64.2951366,28.9710541 C63.8859441,28.4451622 63.5651573,27.8468649 63.3334079,27.1774324 C63.1016584,26.5073649 62.9854679,25.765527 62.9854679,24.9519189 L67.4404886,24.9519189 C67.4404886,25.6067432 67.5440497,26.1624865 67.7511718,26.6191486 C67.958294,27.0751757 68.2468758,27.4454595 68.6169172,27.7280946 C68.9869586,28.0107297 69.4334079,28.2165135 69.956265,28.3460811 C70.4791222,28.4750135 71.0613375,28.5391622 71.702911,28.5391622 C72.2750228,28.5391622 72.7732526,28.4775541 73.1976004,28.3530676 C73.6219482,28.2292162 73.9717826,28.0577297 74.2483665,27.8398784 C74.5243188,27.6213919 74.7295466,27.3609865 74.8627867,27.058027 C74.9960269,26.7557027 75.0623313,26.4305135 75.0623313,26.0830946" id="Fill-1" fill="#007BFF"></path>
                <path d="M86.5977723,20.5157541 L90.5640352,20.5157541 C91.1955052,20.5157541 91.7410952,20.4363622 92.1995424,20.2775784 C92.6586211,20.1187946 93.0330828,19.8977676 93.3241905,19.6151324 C93.6152981,19.3324973 93.8299979,18.9927 93.9682899,18.5957405 C94.1065818,18.1987811 94.175412,17.7668892 94.175412,17.3007 C94.175412,16.8338757 94.1065818,16.3848351 93.9682899,15.9529432 C93.8299979,15.5216865 93.6152981,15.1393351 93.3241905,14.8071595 C93.0330828,14.4743486 92.6586211,14.2088622 92.1995424,14.0107 C91.7410952,13.8119027 91.1955052,13.7128216 90.5640352,13.7128216 L86.5977723,13.7128216 L86.5977723,20.5157541 Z M86.5977723,24.1328486 L86.5977723,31.7697135 L82.1579068,31.7697135 L82.1579068,10.095727 L90.5640352,10.095727 C91.8370787,10.095727 92.9743561,10.2742 93.9758675,10.6311459 C94.9773789,10.988727 95.8254431,11.4873081 96.521323,12.1275243 C97.2165714,12.7677405 97.7470062,13.526727 98.1119959,14.4051189 C98.4769855,15.2835108 98.6601118,16.2387541 98.6601118,17.2708486 C98.6601118,18.3226324 98.4769855,19.2702541 98.1119959,20.1137135 C97.7470062,20.957173 97.2165714,21.6767811 96.521323,22.2725378 C95.8254431,22.8676595 94.9773789,23.3268622 93.9758675,23.6495108 C92.9743561,23.9715243 91.8370787,24.1328486 90.5640352,24.1328486 L86.5977723,24.1328486 Z" id="Fill-3" fill="#007BFF"></path>
                <path d="M104.287583,23.6864757 L109.674653,23.6864757 L106.966278,15.5738946 L104.287583,23.6864757 Z M110.873815,27.3035703 L103.089053,27.3035703 L101.608887,31.7698405 L96.8873861,31.7698405 L104.908949,10.0958541 L109.023608,10.0958541 L117.089374,31.7698405 L112.368504,31.7698405 L110.873815,27.3035703 Z" id="Fill-5" fill="#007BFF"></path>
                <path d="M123.17927,20.2180027 L126.760968,20.2180027 C127.343183,20.2180027 127.853411,20.1411514 128.292914,19.9874486 C128.731786,19.8337459 129.096775,19.6152595 129.387883,19.3319892 C129.678991,19.0493541 129.898742,18.7120973 130.046506,18.3202189 C130.19427,17.9283405 130.268784,17.488827 130.268784,17.0029486 C130.268784,15.9803811 129.980202,15.1769351 129.402407,14.5913405 C128.825243,14.0057459 127.939922,13.7129486 126.745813,13.7129486 L123.17927,13.7129486 L123.17927,20.2180027 Z M126.716765,23.8350973 L123.17927,23.8350973 L123.17927,31.7692054 L118.739405,31.7692054 L118.739405,10.0952189 L126.745813,10.0952189 C127.989177,10.0952189 129.104353,10.2368541 130.090709,10.5194892 C131.077697,10.8027595 131.911237,11.2194081 132.591962,11.7700703 C133.272686,12.3207324 133.795543,13.0035027 134.161165,13.8171108 C134.526154,14.6307189 134.708649,15.5738946 134.708649,16.6453676 C134.708649,17.4392865 134.619612,18.151273 134.442169,18.781327 C134.264726,19.4113811 134.007717,19.9722054 133.672407,20.4638 C133.337096,20.9547595 132.932324,21.3841108 132.458722,21.7512189 C131.985119,22.118327 131.45279,22.4358946 130.860471,22.7039216 L135.522614,31.5608811 L135.522614,31.7692054 L130.75691,31.7692054 L126.716765,23.8350973 Z" id="Fill-7" fill="#007BFF"></path>
                <polygon id="Fill-9" fill="#007BFF" points="144.498139 23.0761108 142.189484 25.577273 142.189484 31.7698405 137.748988 31.7698405 137.748988 10.0958541 142.189484 10.0958541 142.189484 19.9201243 144.143253 17.2258811 149.633884 10.0958541 155.094836 10.0958541 147.443315 19.7270432 155.317114 31.7698405 150.033605 31.7698405"></polygon>
                <polygon id="Fill-11" fill="#007BFF" points="161.065638 28.1820257 170.493484 28.1820257 170.493484 31.7692689 156.625772 31.7692689 156.625772 10.0952824 161.065638 10.0952824"></polygon>
                <polygon id="Fill-13" fill="#007BFF" points="185.639923 22.3765095 177.115079 22.3765095 177.115079 28.1822797 187.120089 28.1822797 187.120089 31.769523 172.675213 31.769523 172.675213 10.0955365 187.09041 10.0955365 187.09041 13.7126311 177.115079 13.7126311 177.115079 18.8781851 185.639923 18.8781851"></polygon>
                <polygon id="Fill-15" fill="#007BFF" points="201.176927 25.9193568 201.843127 29.2836676 202.657092 26.0679784 207.333759 10.0956 208.976844 10.0956 213.594152 26.0679784 214.393593 29.3135189 215.103997 25.9193568 218.996378 10.0956 220.861109 10.0956 215.340798 31.7695865 213.594152 31.7695865 208.710363 14.8146541 208.162879 12.671073 207.629918 14.8146541 202.627413 31.7695865 200.880767 31.7695865 195.37498 10.0956 197.240343 10.0956"></polygon>
                <path d="M225.780828,24.1330392 L234.424389,24.1330392 L230.102609,12.3284176 L225.780828,24.1330392 Z M235.001553,25.6961068 L225.218188,25.6961068 L222.998571,31.7692689 L221.089006,31.7692689 L229.24381,10.0952824 L230.975932,10.0952824 L239.130735,31.7692689 L237.236325,31.7692689 L235.001553,25.6961068 Z" id="Fill-17" fill="#007BFF"></path>
                <polygon id="Fill-19" fill="#007BFF" points="243.769071 30.2213811 254.410604 30.2213811 254.410604 31.7698405 241.93402 31.7698405 241.93402 10.0958541 243.769071 10.0958541"></polygon>
                <polygon id="Fill-21" fill="#007BFF" points="259.374526 30.2213811 270.016058 30.2213811 270.016058 31.7698405 257.539474 31.7698405 257.539474 10.0958541 259.374526 10.0958541"></polygon>
                <polygon id="Fill-23" fill="#007BFF" points="285.044033 21.3791568 274.965141 21.3791568 274.965141 30.2215081 286.553878 30.2215081 286.553878 31.7693324 273.144613 31.7693324 273.144613 10.0953459 286.479364 10.0953459 286.479364 11.6584135 274.965141 11.6584135 274.965141 19.8306973 285.044033 19.8306973"></polygon>
                <g id="Group-27" transform="translate(287.950311, 9.587619)">
                    <mask id="mask-2" fill="white">
                        <use xlink:href="#path-1"></use>
                    </mask>
                    <g id="Clip-26"></g>
                    <polygon id="Fill-25" fill="#007BFF" mask="url(#mask-2)" points="16.9986035 2.07098514 9.61356211 2.07098514 9.61356211 22.1819041 7.79303416 22.1819041 7.79303416 2.07098514 0.422516563 2.07098514 0.422516563 0.507917568 16.9986035 0.507917568"></polygon>
                </g>
                <path d="M45.4634389,22.8100527 C41.823646,22.853877 38.8898364,25.8606068 38.9157267,29.527877 C38.9214099,30.3040122 39.0546501,31.0541068 39.3116584,31.7673635 C42.3010373,29.5424851 44.4644534,26.3877689 45.4653333,22.8100527 L45.4634389,22.8100527 Z" id="Fill-28" fill="#2665D7"></path>
                <path d="M46.8688385,21.8008865 L46.7261263,22.4049 C46.680029,22.5992514 46.595412,22.9250757 46.6036211,22.8952243 C49.7887557,23.4046027 52.1517164,26.1363189 52.1757122,29.4339405 C52.1883416,31.2148595 51.5101429,32.895427 50.2655155,34.1650622 C49.0215197,35.433427 47.3607536,36.1396973 45.5901118,36.1524 C43.2044182,36.142873 40.9829068,34.8706973 39.7938489,32.8084135 C39.8039524,32.8007919 39.8134244,32.7944405 39.823528,32.7868189 C39.6801843,32.8922514 39.5273685,33.0002243 39.3751843,33.1018459 L38.8662195,33.4391027 C40.2554534,35.7941838 42.8065921,37.2791297 45.543383,37.2791297 L45.597058,37.2791297 C47.6682795,37.2645216 49.6094182,36.4394811 51.0636936,34.9558054 C52.5173375,33.4721297 53.3104638,31.5082919 53.29594,29.4256838 C53.2687867,25.6021703 50.5477826,22.4328459 46.8688385,21.8008865" id="Fill-30" fill="#007BFF"></path>
                <polygon id="Fill-32" fill="#007BFF" points="46.1257246 43.7856446 44.6430331 43.7989824 44.6310352 42.3076851 43.510176 42.3172122 43.5228054 43.8078743 42.0401139 43.820577 42.0502174 44.9473068 43.5329089 44.9352392 43.5449068 46.4252662 44.6651346 46.4157392 44.6525052 44.925077 46.1351967 44.9123743"></polygon>
                <path d="M17.8433841,21.2600689 L17.8225455,21.2600689 C17.0508892,21.2600689 16.3240673,20.9602851 15.7734255,20.4147041 C15.2183634,19.8640419 14.9095745,19.1291905 14.9038913,18.3447986 C14.899471,17.7376095 15.0800714,17.1717041 15.3913861,16.7004338 L13.0315828,14.3599608 C12.7284772,15.6562716 12.57503,16.9964068 12.5851335,18.3619473 C12.6495435,27.6107851 20.1545642,35.0901365 29.339295,35.0901365 C29.3797091,35.0901365 29.4194917,35.0901365 29.4592743,35.0895014 C30.8087257,35.0799743 32.1341812,34.9002311 33.4173282,34.5763122 L19.4713137,20.7462446 C18.9951853,21.0752446 18.43444,21.255623 17.8433841,21.2600689" id="Fill-34" fill="#007BFF"></path>
                <path d="M17.8027174,15.3875459 L17.8229244,15.3875459 C19.4230694,15.3875459 20.7314752,16.6908432 20.7422101,18.3028162 C20.7466304,18.8947622 20.576765,19.4613027 20.2578727,19.9440054 L34.6478106,34.2142216 C35.9442184,33.7772486 37.1875828,33.1872081 38.3475932,32.4352081 L38.3627484,32.4244108 C37.9933385,31.5104514 37.8026346,30.5412351 37.7950569,29.5364514 C37.7647464,25.2365865 41.2157298,21.7134919 45.4882557,21.6823703 C45.5716097,21.6823703 45.6543323,21.6823703 45.7370549,21.6849108 C45.8216718,21.2701676 45.8923965,20.8478027 45.9492288,20.4241676 C46.0452122,19.6886811 46.0906781,18.9150865 46.0843634,18.1237081 L46.0843634,18.123073 C46.0527899,13.6225054 44.282148,9.40393784 41.0970135,6.24414054 C37.9409265,3.11419459 33.7713302,1.39488378 29.3434627,1.39488378 C29.3030487,1.39488378 29.2626346,1.39488378 29.221589,1.39551892 C24.7457298,1.42727568 20.5515062,3.20882973 17.4086801,6.41308649 C15.5275311,8.33119459 14.1635559,10.6227622 13.3742184,13.1182081 L16.1792081,15.8994649 C16.6420756,15.580627 17.2009265,15.3919919 17.8027174,15.3875459" id="Fill-36" fill="#007BFF"></path>
                <path d="M17.8101056,16.5145297 C16.8193292,16.5221514 16.0173623,17.3395703 16.0243085,18.3367324 C16.0274658,18.8200703 16.2181698,19.2735568 16.5604265,19.6120838 C16.8995259,19.9480703 17.3472381,20.1328946 17.8233665,20.1328946 L17.8359959,20.1328946 C18.3165445,20.1297189 18.7674141,19.9385432 19.1039876,19.5943 C19.441824,19.2500568 19.6255818,18.7946649 19.621793,18.3106919 C19.6148468,17.3179757 18.8090911,16.5145297 17.8233665,16.5145297 L17.8101056,16.5145297 Z" id="Fill-38" fill="#007BFF"></path>
                <g id="Group-42" transform="translate(0.000000, 0.060592)">
                    <mask id="mask-4" fill="white">
                        <use xlink:href="#path-3"></use>
                    </mask>
                    <g id="Clip-41"></g>
                    <path d="M6.31469979e-05,1.37690946 L12.1091315,13.3847743 C12.2209017,12.9770176 12.3434068,12.5718014 12.4835932,12.1735716 L0.786874741,0.574098649 L6.31469979e-05,1.37690946 Z" id="Fill-40" fill="#007BFF" mask="url(#mask-4)"></path>
                </g>
                <path d="M35.5356573,35.0940743 C35.1422516,35.2407905 34.7444255,35.3741689 34.3415476,35.4923041 L41.6375518,42.7277635 L42.4243634,41.9255878 L35.5356573,35.0940743 Z" id="Fill-43" fill="#007BFF"></path>
            </g>
        </g>
    </g>
</svg>